<svg width="295" height="257" viewBox="0 0 295 257" fill="none" xmlns="http://www.w3.org/2000/svg">
<path d="M220.452 59.9982C220.547 59.9982 220.375 59.9341 220.452 59.9982Z" fill="#464646"/>
<path d="M75.5633 46.3117C75.5633 46.2641 75.5036 46.2165 75.4694 46.1768L75.2903 46.272C75.3825 46.2762 75.4741 46.2895 75.5633 46.3117Z" fill="#464646"/>
<path d="M63.4997 56.4679C63.4773 56.3724 63.4324 56.2828 63.3682 56.2055C63.304 56.1282 63.222 56.0651 63.1283 56.0208C63.0211 56.0115 62.9131 56.0275 62.8143 56.0673C62.7155 56.107 62.629 56.1693 62.5629 56.2483C62.0734 57.0326 61.6261 57.8641 61.1872 58.6877C61.0016 59.0328 61.1872 59.2367 61.5839 59.323C63.0693 59.6603 63.525 59.323 63.525 57.9347V57.6994C63.5421 57.2888 63.5336 56.8776 63.4997 56.4679Z" fill="#464646"/>
<path d="M65.7451 56.2482C65.6785 56.1701 65.5917 56.109 65.4928 56.0706C65.3939 56.0322 65.2861 56.0177 65.1796 56.0286C65.0832 56.0694 64.9989 56.1314 64.9342 56.2093C64.8695 56.2873 64.8263 56.3787 64.8082 56.4757C64.7787 56.8648 64.7787 57.2554 64.8082 57.6444C64.7701 58.0332 64.7701 58.4244 64.8082 58.8132C64.8362 58.9257 64.8942 59.0299 64.9768 59.1163C65.0593 59.2026 65.1639 59.2683 65.2809 59.3073C65.7598 59.3661 66.2451 59.3661 66.7241 59.3073C67.1376 59.2603 67.3064 59.0014 67.0954 58.6249C66.6819 57.8327 66.2261 57.0326 65.7451 56.2482Z" fill="#464646"/>
<path d="M284.493 44.6469C284.493 44.6469 265.267 68.5469 244.759 67.2056C244.514 67.1507 227.534 63.2288 220.495 59.9972C218.621 59.4638 197.708 53.7221 180.719 70.8922C180.719 70.8922 166.177 76.3829 144.555 56.1537L113.885 37.1796C114.332 37.8306 132.005 63.5818 121.937 86.5955C121.937 85.9052 121.827 58.7186 113.497 51.9887C113.497 51.9887 108.323 67.0644 100.28 71.0805L98.5925 71.6374L99.7909 67.1743C99.7909 67.1743 113.294 35.4069 97.9849 15.1307C94.7365 19.1207 91.2245 22.9192 87.469 26.5042C90.2398 20.4706 90.8118 13.7605 89.0979 7.39667C81.7976 3.0669 66.3108 -3.85918 48.731 2.69039C48.731 2.69039 41.186 4.0709 33.7759 12.001C30.6702 21.5704 30.0372 34.3872 30.0372 34.3872C28.3766 30.8166 27.0824 27.1084 26.1718 23.3117C23.0806 30.1082 21.1198 37.3022 20.3569 44.6469C20.3569 44.6469 22.9816 63.9661 29.4802 71.4491C29.227 71.3472 18.171 66.8448 15.9767 52.0828C15.8164 52.9142 8.38102 91.0665 32.0121 113.029L51.1026 143.675L32.9151 100.534C32.9151 100.534 33.3202 87.9839 40.6965 83.9835C40.6965 83.9835 47.2288 80.0616 48.3597 66.4762L53.6345 69.0175C61.4749 72.2884 67.5261 73.214 75.721 68.2332C76.2443 67.9116 76.9701 71.4178 76.9532 71.9825C76.9296 73.375 76.6232 74.7509 76.0502 76.0377C75.8779 76.4747 75.5597 76.849 75.1421 77.1059C74.7245 77.3628 74.2294 77.4887 73.7293 77.4653H55.7106C55.4707 77.466 55.2319 77.4343 55.0017 77.3712C56.3039 79.1422 58.0753 80.5714 60.1449 81.5208C62.2146 82.4702 64.5126 82.9078 66.8172 82.7913C66.8172 82.7913 74.7252 82.956 78.0504 78.8694C78.0504 78.8694 82.6247 77.3006 89.2836 87.1759C89.2836 87.1759 92.8198 94.9021 103.006 93.1686C103.006 93.1686 103.58 94.0863 99.2592 95.0746C99.2592 95.0746 92.7185 99.9143 79.9409 86.2425L79.8902 86.1955L77.0208 83.7168C77.2655 84.2267 84.6671 99.4044 94.4824 102.26C94.4824 102.26 105.277 103.42 111.109 98.9809C110.864 99.3809 104.357 109.688 87.199 104.573C87.199 104.573 72.8516 93.1137 65.9901 95.0746C65.9901 95.0746 40.764 98.4867 62.9434 136.851L46.0641 177.144C46.0641 177.144 23.4036 191.263 21.53 196.471C21.6228 196.471 35.7846 191.287 38.1393 190.11L30.0541 196.471C30.2144 196.471 37.27 197.923 50.6215 190.102L43.1524 197.813H53.5501C53.5501 197.813 59.7954 196.832 63.9477 176.556C63.9477 176.556 81.8314 144.671 95.9678 136.741C95.9678 136.741 109.648 127.493 107.834 116.504C108.121 117.382 111.893 129.219 109.902 134.992C110.678 134.725 139.44 124.795 148.564 101.475L159.848 81.0813C159.586 82.0696 151.197 114.386 158.776 132.066C158.776 132.066 167.789 154.962 167.789 161.872C167.789 161.872 170.912 175.607 160.464 182.98C160.464 182.98 148.581 194.142 148.446 195.373C148.496 195.373 157.949 193.02 160.649 190.071C160.177 190.667 156.126 195.789 156.007 195.93C156.252 195.93 167.207 194.675 170.06 192.581L167.182 194.699C167.258 194.699 178.373 198.134 184.12 191.13L185.681 146.381L199.733 135.886L192.062 135.439L202.172 123.924H190.289L201.717 111.978L191.032 111.311L191.268 109.413C191.268 109.413 202.67 88.3054 186.947 79.3714C186.947 79.3714 198.476 65.88 216.359 67.9743C216.359 67.9743 223.027 68.3195 232.159 73.0806C233.053 73.5511 234.017 73.8972 235.02 74.1082C246.407 76.4365 258.257 75.8949 269.344 72.5394C269.344 72.5394 289.97 64.5231 294.823 46.898C296.207 41.8702 289.152 38.6934 285.759 42.8114C285.303 43.4025 284.88 44.0151 284.493 44.6469ZM48.8239 64.1309C48.8239 64.021 48.8829 63.9112 48.9167 63.8093L49.0095 63.9034C48.9292 63.9645 48.8656 64.0425 48.8239 64.1309ZM81.5191 38.7091C81.3506 38.8233 81.1695 38.9206 80.979 38.9993C81.1055 38.2777 81.2153 37.6737 81.2743 37.3443C79.7721 38.2071 78.1939 39.1876 76.5397 40.0426C75.4003 40.6308 75.1894 41.3446 75.4932 42.4898C75.7821 43.6116 75.9517 44.7571 75.9996 45.9097C75.9996 46.2862 75.9996 46.6941 75.9996 47.0471C75.9996 47.0471 75.9996 46.9843 75.9405 46.9451C75.9219 47.0671 75.8937 47.1877 75.8561 47.3059C75.3037 49.0639 74.2783 50.662 72.8769 51.9494C69.5432 54.9536 69.501 60.2325 72.1089 63.5583C72.5815 64.1544 73.1891 64.6642 73.6364 65.2761C74.0779 65.8164 74.473 66.3881 74.818 66.986C74.9446 67.2056 74.7167 67.1193 74.5648 67.3233C74.4138 67.4811 74.2373 67.6161 74.0416 67.7233C67.8553 71.857 60.4706 71.6844 54.0902 67.8724C53.8951 67.7759 53.7137 67.6574 53.5501 67.5194C53.4066 67.3782 53.2631 67.3311 53.3982 67.135C53.9109 66.2414 54.531 65.4046 55.2464 64.6407C56.632 63.2574 57.543 61.522 57.8632 59.6556C58.1833 57.7892 57.8982 55.8765 57.0441 54.1614C56.6354 53.4129 56.1124 52.7234 55.4912 52.1142C54.098 50.7825 53.0502 49.1729 52.4276 47.4079C52.3842 47.2826 52.3531 47.154 52.3348 47.0235C52.3348 47.0235 52.3348 46.9765 52.3348 46.9608C52.3165 46.8727 52.3165 46.7822 52.3348 46.6941C52.4464 45.3472 52.6664 44.0101 52.993 42.6938C53.1178 42.4405 53.1844 42.1658 53.1883 41.8872C53.1922 41.6087 53.1335 41.3325 53.0159 41.0762C52.8984 40.82 52.7245 40.5894 52.5054 40.3992C52.2864 40.2091 52.027 40.0636 51.744 39.972C50.1489 39.1876 48.6635 38.215 47.2372 37.3835C47.2963 37.6816 47.4313 38.3012 47.5663 38.9523C45.6674 37.8777 44.9669 36.1991 46.0894 34.5205C47.1679 33.1086 48.3887 31.7953 49.7353 30.5986C50.1777 30.2496 50.6521 29.9372 51.1532 29.6652L49.2374 29.5319C51.8959 27.8141 55.795 27.9631 59.078 30.4418L58.7067 29.2181C60.555 30.5829 61.7365 32.4811 64.1503 32.5439C66.564 32.6066 67.9144 30.7712 69.6276 29.3122C69.6276 29.7358 69.577 29.9868 69.5432 30.4496C72.6153 27.971 75.8898 27.9553 79.3079 29.5319L77.62 29.6887C78.8801 30.644 80.0805 31.6653 81.2153 32.7478C83.4096 35.0068 83.4349 36.9835 81.5191 38.7091Z" fill="#464646"/>
<path d="M66.0068 36.9211C66.0743 36.3721 66.1165 36.0269 66.184 35.4387L64.3104 37.0074L62.3862 35.3524C62.4874 35.9407 62.5381 36.2623 62.6393 36.8741C61.1364 35.7821 59.393 35.0114 57.5331 34.6169C55.6732 34.2224 53.7427 34.2137 51.8788 34.5915L54.2081 34.9602L52.824 35.5799C54.3347 35.2818 55.0099 35.6975 55.2209 37.2192C55.4488 38.8586 56.9088 39.7371 58.4617 40.294C58.9597 40.4665 59.4745 40.6077 60.4028 40.8901L60.099 40.9764H60.4197C63.458 39.7998 68.2602 40.9764 68.2602 40.9764H68.3108H68.2348C69.3151 40.5999 70.0156 40.3881 70.6908 40.1214C71.405 39.9076 72.0406 39.512 72.5253 38.9797C73.0101 38.4473 73.3248 37.7994 73.4337 37.1094C73.5856 35.6269 74.2776 35.3838 75.6449 35.5877L74.4549 34.9994L76.7167 34.6072C72.8682 33.9954 69.3067 34.5053 66.0068 36.9211ZM58.0651 38.2938C56.5544 37.6506 56.3771 36.6152 57.373 34.9994C57.6672 35.3631 57.9137 35.7581 58.1072 36.176C58.4195 37.1721 59.0778 37.5408 60.0062 36.9604C60.9345 36.3799 61.2806 37.0623 61.8207 37.58C61.3718 38.0735 60.7572 38.4123 60.076 38.5418C59.3947 38.6712 58.6864 38.5839 58.0651 38.2938ZM71.1887 38.0506C69.889 38.8821 68.5471 38.788 66.9689 37.6036C67.509 36.9447 67.8804 36.4113 68.8509 36.9996C69.8215 37.5879 70.3532 37.1486 70.6486 36.2152C70.8444 35.795 71.0877 35.3953 71.3744 35.0229C72.1846 36.2701 72.5053 37.2035 71.1887 38.0506Z" fill="#464646"/>
<path d="M72.3026 178.047L76.5224 183.953C76.5224 183.953 66.4708 188.659 65.9391 194.778V196.558C65.9391 196.558 73.7542 186.361 82.1264 187.263L73.8302 174.909L72.3026 178.047Z" fill="#464646"/>
<path d="M87.4852 156.9L104.938 182.737V180.902L90.6248 152.798L87.4852 156.9Z" fill="#464646"/>
<path d="M134.832 134.521L130.291 137.981L138.554 153.441V176.478C138.554 176.478 118.543 189.663 116.805 196.048L119.337 196.589C119.337 196.589 131.895 183.184 139.592 182.212C139.592 182.212 141.685 182.918 142.267 174.894L142.968 154.429C142.968 154.429 138.419 135.69 134.832 134.521Z" fill="#464646"/>
<path d="M1.8819 231.463C3.07842 229.276 4.93872 227.462 7.23264 226.247C9.7389 224.964 12.567 224.322 15.4275 224.388C17.9247 224.348 20.3996 224.83 22.6688 225.8C24.737 226.708 26.523 228.09 27.8592 229.816C29.2277 231.607 30.1397 233.665 30.5261 235.832H20.2635C19.8392 234.927 19.1452 234.154 18.2633 233.604C17.3796 233.073 16.3449 232.8 15.2925 232.82C14.5377 232.787 13.7854 232.924 13.1003 233.221C12.4153 233.517 11.8179 233.964 11.3596 234.522C10.4224 235.908 9.92516 237.513 9.92516 239.15C9.92516 240.787 10.4224 242.391 11.3596 243.778C11.8119 244.336 12.4026 244.785 13.0815 245.085C13.7604 245.385 14.5073 245.529 15.2588 245.503C16.3113 245.525 17.3465 245.252 18.2295 244.719C19.1321 244.162 19.8392 243.371 20.2635 242.444H30.5345C30.1494 244.613 29.2341 246.672 27.8592 248.461C26.5207 250.181 24.7311 251.556 22.6603 252.453C20.3911 253.423 17.9163 253.905 15.4191 253.865C12.5587 253.93 9.7309 253.288 7.2242 252.006C4.93028 250.791 3.06998 248.977 1.87346 246.79C0.640202 244.398 0 241.779 0 239.126C0 236.474 0.640202 233.855 1.87346 231.463H1.8819Z" fill="#464646"/>
<path d="M62.8923 224.67V253.645H53.1191V242.366H43.8355V253.661H34.054V224.67H43.8271V235.11H53.1107V224.67H62.8923Z" fill="#464646"/>
<path d="M77.0711 224.67V253.645H67.298V224.67H77.0711Z" fill="#464646"/>
<path d="M91.2494 246.774H100.677V253.653H81.4763V224.678H91.2494V246.774Z" fill="#464646"/>
<path d="M123.751 249.268H113.362L111.817 253.645H101.554L112.956 224.67H124.232L135.592 253.645H125.287L123.751 249.268ZM121.371 242.436L118.552 234.373L115.733 242.436H121.371Z" fill="#464646"/>
<path d="M159.349 226.514C161.725 227.676 163.688 229.452 165.004 231.628C166.354 233.908 167.037 236.477 166.987 239.079C167.03 241.681 166.346 244.248 165.004 246.531C163.691 248.734 161.729 250.543 159.349 251.747C156.719 253.059 153.768 253.716 150.783 253.653H137.794V224.678H150.783C153.759 224.607 156.707 225.239 159.349 226.514ZM155.129 243.864C156.38 242.541 157.07 240.84 157.07 239.079C157.07 237.318 156.38 235.617 155.129 234.295C153.684 233.122 151.804 232.52 149.888 232.616H147.551V245.55H149.888C151.81 245.644 153.696 245.039 155.146 243.864H155.129Z" fill="#464646"/>
<path d="M190.509 249.268H180.119L178.575 253.645H168.312L179.714 224.67H190.99L202.349 253.645H192.045L190.509 249.268ZM188.129 242.436L185.31 234.373L182.491 242.436H188.129Z" fill="#464646"/>
<path d="M215.819 238.593C213.679 238.593 211.627 237.803 210.114 236.397C208.601 234.99 207.75 233.083 207.75 231.094C207.75 229.106 208.601 227.198 210.114 225.792C211.627 224.386 213.679 223.596 215.819 223.596C217.959 223.596 220.011 224.386 221.524 225.792C223.037 227.198 223.887 229.106 223.887 231.094C223.888 232.079 223.68 233.055 223.275 233.965C222.87 234.875 222.276 235.702 221.526 236.399C220.777 237.096 219.887 237.648 218.908 238.024C217.928 238.401 216.879 238.594 215.819 238.593Z" fill="#4C2D8E"/>
<path d="M235.399 239.103C234.339 239.103 233.29 238.909 232.311 238.532C231.332 238.155 230.443 237.603 229.693 236.907C228.944 236.21 228.35 235.384 227.944 234.474C227.539 233.564 227.33 232.589 227.33 231.604C227.33 229.615 228.18 227.708 229.693 226.302C231.207 224.895 233.259 224.105 235.399 224.105C237.538 224.105 239.591 224.895 241.104 226.302C242.617 227.708 243.467 229.615 243.467 231.604C243.467 232.589 243.258 233.564 242.853 234.474C242.447 235.384 241.853 236.21 241.104 236.907C240.355 237.603 239.465 238.155 238.486 238.532C237.507 238.909 236.458 239.103 235.399 239.103Z" fill="#BEBB32"/>
<path d="M255.232 238.593C253.092 238.593 251.04 237.803 249.527 236.397C248.014 234.99 247.164 233.083 247.164 231.094C247.164 229.106 248.014 227.198 249.527 225.792C251.04 224.386 253.092 223.596 255.232 223.596C257.372 223.596 259.424 224.386 260.937 225.792C262.451 227.198 263.301 229.106 263.301 231.094C263.301 233.083 262.451 234.99 260.937 236.397C259.424 237.803 257.372 238.593 255.232 238.593Z" fill="#A64263"/>
<path d="M274.044 238.593C271.904 238.593 269.852 237.803 268.339 236.397C266.826 234.99 265.976 233.083 265.976 231.094C265.976 229.106 266.826 227.198 268.339 225.792C269.852 224.386 271.904 223.596 274.044 223.596C276.184 223.596 278.236 224.386 279.749 225.792C281.262 227.198 282.112 229.106 282.112 231.094C282.114 232.079 281.906 233.055 281.501 233.965C281.095 234.875 280.501 235.702 279.752 236.399C279.002 237.096 278.112 237.648 277.133 238.024C276.154 238.401 275.104 238.594 274.044 238.593Z" fill="#C3862B"/>
<path d="M215.127 256.296C212.987 256.296 210.935 255.506 209.422 254.1C207.909 252.694 207.059 250.787 207.059 248.798C207.059 246.809 207.909 244.902 209.422 243.495C210.935 242.089 212.987 241.299 215.127 241.299C217.267 241.299 219.319 242.089 220.832 243.495C222.345 244.902 223.195 246.809 223.195 248.798C223.195 250.787 222.345 252.694 220.832 254.1C219.319 255.506 217.267 256.296 215.127 256.296Z" fill="#66A543"/>
<path d="M234.766 256.296C232.626 256.296 230.574 255.506 229.061 254.1C227.548 252.694 226.698 250.787 226.698 248.798C226.698 246.809 227.548 244.902 229.061 243.495C230.574 242.089 232.626 241.299 234.766 241.299C236.906 241.299 238.958 242.089 240.471 243.495C241.984 244.902 242.834 246.809 242.834 248.798C242.832 250.786 241.981 252.692 240.469 254.098C238.956 255.504 236.905 256.294 234.766 256.296Z" fill="#464646"/>
<path d="M254.591 256.296C252.451 256.296 250.399 255.506 248.885 254.1C247.372 252.694 246.522 250.787 246.522 248.798C246.522 246.809 247.372 244.902 248.885 243.495C250.399 242.089 252.451 241.299 254.591 241.299C255.65 241.299 256.699 241.493 257.678 241.87C258.657 242.247 259.547 242.799 260.296 243.495C261.045 244.192 261.639 245.018 262.045 245.928C262.45 246.838 262.659 247.813 262.659 248.798C262.659 249.783 262.45 250.758 262.045 251.667C261.639 252.577 261.045 253.404 260.296 254.1C259.547 254.796 258.657 255.349 257.678 255.726C256.699 256.102 255.65 256.296 254.591 256.296Z" fill="#009C88"/>
<path d="M274.044 256.296C271.904 256.296 269.852 255.506 268.339 254.1C266.826 252.694 265.976 250.787 265.976 248.798C265.976 246.809 266.826 244.902 268.339 243.495C269.852 242.089 271.904 241.299 274.044 241.299C276.184 241.299 278.236 242.089 279.749 243.495C281.262 244.902 282.112 246.809 282.112 248.798C282.112 250.787 281.262 252.694 279.749 254.1C278.236 255.506 276.184 256.296 274.044 256.296Z" fill="#773F33"/>
</svg>
